<svg width="96" height="96" viewBox="0 0 96 96" fill="none" xmlns="http://www.w3.org/2000/svg">
<g clip-path="url(#clip0_405_2)">
<path d="M66.36 30.32L40 56.68L25.64 42.36L20 48L40 68L72 36L66.36 30.32ZM48 8C25.92 8 8 25.92 8 48C8 70.08 25.92 88 48 88C70.08 88 88 70.08 88 48C88 25.92 70.08 8 48 8ZM48 80C30.32 80 16 65.68 16 48C16 30.32 30.32 16 48 16C65.68 16 80 30.32 80 48C80 65.68 65.68 80 48 80Z" fill="white"/>
</g>
<defs>
<clipPath id="clip0_405_2">
<rect width="96" height="96" fill="white"/>
</clipPath>
</defs>
</svg>
